<svg xmlns="http://www.w3.org/2000/svg" width="36" height="37" fill="none"><path fill-rule="evenodd" d="M18.009 3.897c-7.949 0-14.393 6.444-14.393 14.393s6.444 14.393 14.393 14.393 14.392-6.444 14.392-14.393S25.958 3.897 18.009 3.897zM.019 18.29C.019 8.354 8.073.299 18.009.299S36 8.354 36 18.29 27.945 36.28 18.009 36.28.019 28.226.019 18.29zM18.009 7.495a1.8 1.8 0 0 1 1.799 1.799v8.451l3.296 4.944a1.8 1.8 0 0 1-.499 2.495 1.8 1.8 0 0 1-2.495-.499l-3.598-5.397a1.8 1.8 0 0 1-.302-.998V9.294a1.8 1.8 0 0 1 1.799-1.799z" fill="#ff6e00"/></svg>