<svg xmlns="http://www.w3.org/2000/svg" width="50" height="37" fill="#ff6e00" fill-rule="evenodd">
<path d="M4.005 9.744c0-.745.628-1.349 1.402-1.349h7.21c.774 0 1.402.604 1.402 1.349s-.628 1.349-1.402 1.349h-7.21c-.774 0-1.402-.604-1.402-1.349zM0 17.84c0-.745.628-1.349 1.402-1.349h7.21c.774 0 1.402.604 1.402 1.349s-.628 1.349-1.402 1.349h-7.21C.628 19.189 0 18.585 0 17.84zm4.005 8.096c0-.745.628-1.349 1.402-1.349h7.21c.774 0 1.402.604 1.402 1.349s-.628 1.349-1.402 1.349h-7.21c-.774 0-1.402-.604-1.402-1.349zM32.009 3.897c-7.949 0-14.392 6.444-14.392 14.393s6.444 14.393 14.392 14.393 14.392-6.444 14.392-14.393S39.958 3.897 32.009 3.897zM14.019 18.29C14.019 8.354 22.074.299 32.01.299S50 8.354 50 18.29s-8.055 17.99-17.991 17.99-17.99-8.054-17.99-17.99zm17.99-10.795a1.8 1.8 0 0 1 1.799 1.799v8.451l3.296 4.944a1.8 1.8 0 0 1-.499 2.495 1.8 1.8 0 0 1-2.495-.499l-3.598-5.397a1.8 1.8 0 0 1-.302-.998V9.294a1.8 1.8 0 0 1 1.799-1.799z"/></svg>