<svg xmlns="http://www.w3.org/2000/svg" width="53" height="44" fill="none"><g clip-path="url(#A)"><g stroke="#0032ff" stroke-miterlimit="10"><path d="M35.243 41.372l-2.479.455c-.684.101-1.369-.679-1.534-1.751l-.387-2.441c-1.71.346-3.45.524-5.195.531-2.457-.013-4.901-.37-7.259-1.061l-.435 2.966c-.159 1.061-.838 1.862-1.523 1.762l-4.712-.695c-.684-.101-1.109-1.061-.95-2.122l.722-4.914.048-.265C7.543 30.97 5.044 26.9 5.044 22.385a12.29 12.29 0 0 1 .807-4.351l.196-.499C8.7 11.22 16.485 6.651 25.648 6.651a26.64 26.64 0 0 1 4.924.456c1.284-1.555 3.767-4.107 6.845-5.009a.44.44 0 0 1 .432.124.44.44 0 0 1 .098.439 22.63 22.63 0 0 0-1.252 6.447c4.351 2.122 7.593 5.45 8.904 9.371h1.889a1.59 1.59 0 0 1 1.592 1.592v6.086a1.59 1.59 0 0 1-1.592 1.592h-2.473c-.426.838-.919 1.636-1.472 2.386" stroke-width="4" stroke-linecap="round" stroke-linejoin="round"/><g fill="#0032ff"><path d="M2.433 14.6c-.605-3.656 2.192-4.558 2.26-4.67s-.032-.504-.17-.504c-.032 0-3.295 1.151-2.611 5.259.361 2.165 2.229 3.025 3.937 3.348l.196-.499c-1.571-.276-3.295-1.024-3.614-2.934z" stroke-width="3.065"/></g></g><path d="M37.475 21.437c1.306 0 2.364-1.058 2.364-2.364s-1.058-2.364-2.364-2.364-2.364 1.058-2.364 2.364 1.058 2.364 2.364 2.364z" fill="#0032ff"/><path d="M39.354 39.89a3.6 3.6 0 0 0 0-7.202 3.6 3.6 0 1 0 0 7.202z" fill="#ff6e00"/></g><defs><clipPath id="A"><path fill="#fff" d="M0 0h52.098v43.925H0z"/></clipPath></defs></svg>