<svg xmlns="http://www.w3.org/2000/svg" width="123" height="38" fill="none"><path d="M13.791 12.518c-.73.478-1.338 1.137-1.744 1.918L10.7 13.138c-1.22-1.171-2.827-1.821-4.523-1.821H1.88V8.73h4.302c2.372 0 4.616.903 6.326 2.548l1.284 1.24zm16.321 10.23c-.265.737-.573 1.464-.916 2.182l-.201.405h-1.94c-2.372 0-4.616-.903-6.326-2.548l-1.558-1.498c.764-.434 1.406-1.054 1.862-1.801l1.499 1.44c1.22 1.171 2.827 1.821 4.523 1.821h3.058z" fill="#00b2e3"/><path d="M33.959 15.037V1.562l-3.196-.497c-9.132-1.42-18.432-1.42-27.564 0l-3.196.497v13.475c-.125 7.361 3.594 14.464 8.599 18.327 0 0 3.944 3.317 8.378 4.637 4.972-1.601 8.379-4.637 8.379-4.637 5.005-3.862 8.724-10.965 8.599-18.327zm-31.417.043v-11.4l.782-.119a89.58 89.58 0 0 1 27.309 0l.782.119V8.55h-4.237a8.88 8.88 0 0 0-6.195 2.495l-1.252 1.205a5.02 5.02 0 0 0-2.754-.813c-2.793 0-5.053 2.256-5.053 5.033 0 .951.264 1.84.725 2.6L11.165 20.5c-1.195 1.147-2.769 1.783-3.868 1.783H3.77c-.845-2.361-1.267-4.809-1.228-7.203zm26.753 9.331c-1.353 2.791-3.302 5.263-5.49 6.95 0 0-2.942 2.534-6.843 3.968-3.556-1.276-6.8-3.968-6.8-3.968-2.087-1.606-3.954-3.924-5.293-6.553H6.74a8.89 8.89 0 0 0 6.195-2.495l1.536-1.477c.739.425 1.598.665 2.51.665 2.793 0 5.053-2.256 5.053-5.033a4.98 4.98 0 0 0-.585-2.352l1.305-1.252a6.36 6.36 0 0 1 4.429-1.783h4.237v3.996c.048 3.131-.686 6.357-2.126 9.335z" fill="#000096"/><path d="M11.459 16.818c0 .405.049.8.137 1.176H2.013c-.147-1.196-.132-2.357-.132-2.357h9.716a5.23 5.23 0 0 0-.137 1.181zm19.908-1.181s.02 1.025-.132 2.357h-9.589c.088-.376.137-.771.137-1.176a5.16 5.16 0 0 0-.137-1.176h9.721v-.005zm-14.748 4.226a3.05 3.05 0 0 0 3.057-3.046c0-1.683-1.369-3.046-3.057-3.046s-3.058 1.364-3.058 3.046 1.369 3.046 3.058 3.046z" fill="#ff6b00"/><path d="M54.145 27.968l-4.282-7.162h-2.366v7.162h-3.531V8.856h7.138c2.077 0 3.658.569 4.778 1.736 1.114 1.167 1.662 2.563 1.662 4.242 0 2.483-1.35 4.707-4.022 5.558l4.83 7.576h-4.206zm-6.647-15.829v5.483h3.22c2.158 0 3.191-1.219 3.191-2.765 0-1.529-1.039-2.719-2.804-2.719h-3.606zm23.375 12.305c-1.16.621-2.441.937-3.814.937-2.418 0-3.866-1.293-4.31-3.23h10.75a11.5 11.5 0 0 0 .104-1.5c0-2.173-.652-3.88-1.973-5.15-1.298-1.264-2.96-1.914-5.008-1.914-2.152 0-3.918.701-5.297 2.098-1.35 1.368-2.025 3.127-2.025 5.248 0 3.724 2.337 7.345 7.634 7.345 1.985 0 3.756-.465 5.314-1.397l-1.373-2.437zm-4.258-8.035c1.945 0 3.376 1.213 3.658 3.178h-7.53c.444-1.966 1.898-3.178 3.872-3.178zm21.072 11.559h-3.895l-2.885-4.759-2.96 4.759h-3.918l4.726-7.19-4.23-6.851h3.895l2.573 4.449 2.724-4.449h3.843l-4.466 6.955 4.593 7.087zm13.889-17.847c0-1.219.964-2.121 2.181-2.121a2.07 2.07 0 0 1 2.129 2.121c0 1.241-.905 2.121-2.129 2.121-1.246 0-2.181-.879-2.181-2.121zm-7.039 3.805V8.96H91.19v4.966h-2.389v2.845h2.337v6.052c0 3.592 1.633 5.483 4.83 5.483 1.587 0 2.96-.391 4.073-1.167l-1.067-2.638c-.802.489-1.61.724-2.389.724-1.373 0-2.054-.856-2.054-2.535v-5.92h7.478v11.197h3.399V13.926H94.537zm24.8 10.518c-1.16.621-2.441.937-3.814.937-2.412 0-3.866-1.293-4.311-3.23h10.75c.081-.621.104-1.109.104-1.5 0-2.173-.652-3.88-1.973-5.15-1.299-1.264-2.96-1.914-5.009-1.914-2.152 0-3.918.701-5.297 2.098-1.35 1.368-2.025 3.127-2.025 5.248 0 3.724 2.337 7.345 7.634 7.345 1.985 0 3.756-.465 5.314-1.397l-1.373-2.437zm-4.259-8.035c1.945 0 3.376 1.213 3.659 3.178h-7.53c.444-1.966 1.898-3.178 3.871-3.178z" fill="#000096"/></svg>