<svg xmlns="http://www.w3.org/2000/svg" width="46" height="43" fill="none"><path d="M30.533 24.536c0 1.381-.405 2.62-1.31 3.596-.81.976-1.953 1.643-3.43 1.953v2.691h-3.191v-2.62c-2.381-.405-4.168-1.643-5.382-3.668l2.524-2.382c.5.81 1.072 1.477 1.81 1.953a4.19 4.19 0 0 0 2.382.738c.738 0 1.31-.167 1.81-.572a1.74 1.74 0 0 0 .643-1.381c0-.738-.571-1.381-1.643-1.953l-1.143-.5c-1.381-.643-2.286-1.143-2.786-1.477-1.715-1.143-2.62-2.691-2.62-4.501 0-1.31.405-2.453 1.215-3.358a5.52 5.52 0 0 1 3.263-1.786V8.818h3.191v2.453a7.76 7.76 0 0 1 4.168 2.381l-2.048 2.691c-1.215-1.143-2.453-1.715-3.763-1.715-.643 0-1.215.167-1.548.5-.405.334-.572.738-.572 1.31 0 .5.238.81.572 1.215.238.167.643.5 1.215.81.238.167.81.5 1.715.905l2.215 1.143c1.81.738 2.691 2.215 2.691 4.001l.024.024z" fill="#0032ff"/><path d="M7.313 34.944c2.249 0 4.072-1.823 4.072-4.072s-1.823-4.072-4.072-4.072-4.072 1.823-4.072 4.072 1.823 4.072 4.072 4.072z" fill="#ff6e00"/><path d="M21.317.15C12.6 1.174 5.408 7.628 3.217 15.963l-1.191-.143C.883 15.701.073 16.916.645 17.916l2.929 5.168c.476.834 1.619.953 2.262.262l4.025-4.358c.786-.834.262-2.215-.881-2.334l-1.072-.119C9.766 10.438 15.053 5.77 21.388 4.841c10.907-1.572 20.219 7.43 19.148 18.243-.762 7.668-6.883 13.98-14.551 14.932-4.144.5-8.026-.5-11.193-2.548-.929-.595-2.12-.476-2.905.286-1.024 1.024-.905 2.763.31 3.549 4.072 2.667 9.098 3.977 14.456 3.286 9.502-1.215 17.171-8.883 18.385-18.385C46.823 10.295 35.153-1.47 21.269.15h.048z" fill="#0032ff"/></svg>