<svg xmlns="http://www.w3.org/2000/svg" width="39" height="42" fill="none"><g stroke="#0032ff" stroke-width="4" stroke-linejoin="round"><path d="M25.5 38.898H5a2 2 0 0 1-2-2 14 14 0 0 1 14-14h4a13.82 13.82 0 0 1 4 .58c1.637.571 4.814 1.971 7.184 4.826" stroke-linecap="round"/><path d="M29 12.898a10 10 0 0 1-6.173 9.239 10 10 0 0 1-10.898-2.168A10 10 0 0 1 9.761 9.071 10 10 0 0 1 19 2.897a10 10 0 0 1 10 10z"/></g><path d="M34.072 41.145c2.249 0 4.072-1.823 4.072-4.072S36.322 33 34.072 33 30 34.823 30 37.072s1.823 4.072 4.072 4.072z" fill="#ff6e00"/></svg>